<?xml version="1.0" encoding="UTF-8"?>
<svg width="166px" height="41px" viewBox="0 0 166 41" version="1.1" xmlns="http://www.w3.org/2000/svg" xmlns:xlink="http://www.w3.org/1999/xlink">
    <!-- Generator: Sketch 44.1 (41455) - http://www.bohemiancoding.com/sketch -->
    <title>LineApp Copy 2</title>
    <desc>Created with Sketch.</desc>
    <defs></defs>
    <g id="Page-1" stroke="none" stroke-width="1" fill="none" fill-rule="evenodd">
        <g id="Lead-Gen" transform="translate(-429.000000, -65.000000)" fill="#FFFFFF">
            <path d="M437.943629,66.8773109 L429,67.9173919 L429,97.2982804 L449.018683,97.2982804 L449.018683,89.9170353 L437.943629,89.9170353 L437.943629,66.8773109 Z M452.631022,97.2982804 L461.156724,97.2982804 L461.156724,74.6852175 L452.213095,75.1118791 L452.631022,82.6211226 L452.631022,97.2982804 Z M457.061043,72.5519097 C459.819359,72.5519097 461.449272,71.3572573 461.449272,68.7546218 C461.449272,66.1519862 459.819359,65 457.061043,65 C454.428106,65 452.798192,66.1519862 452.798192,68.7546218 C452.798192,71.3572573 454.428106,72.5519097 457.061043,72.5519097 Z M466.524355,97.2982804 L475.050057,97.2982804 L475.050057,83.2611149 C475.050057,82.194461 475.977163,81.9518874 477.021979,81.9518874 C477.523491,81.9518874 478.646692,81.6997676 478.646692,83.3210816 L478.646692,89.4223419 C478.646692,93.816956 478.688485,95.2249392 478.897448,97.358247 L487.506736,97.358247 C487.25598,95.2249392 487.172394,93.816956 487.172394,88.1423572 L487.172394,82.2544276 C487.172394,75.0865134 483.034921,74.702518 480.318399,74.702518 C477.97801,74.702518 475.853009,74.6425513 474.153069,77.1178602 L473.83807,74.6425513 L465.939257,75.1118791 C466.440769,78.7385024 466.524355,81.1704733 466.524355,84.3277688 L466.524355,97.2982804 Z M502.317039,97.7676081 C494.292849,97.7676081 490.782266,93.4156602 490.782266,86.2050797 C490.782266,79.0798316 494.627191,74.6425513 501.397601,74.6425513 C507.20678,74.6425513 511.260668,77.4585177 511.260668,83.9437734 C511.260668,85.6077535 510.759156,87.655729 510.34123,88.466386 L499.18259,88.466386 C499.433346,90.8983569 500.854296,91.5810154 503.320063,91.5810154 C505.827623,91.5810154 509.08745,90.6850261 510.550193,90.0877 L510.550193,96.5302896 C507.708292,97.5542773 504.782806,97.7676081 502.317039,97.7676081 Z M501.648357,80.7864779 C500.102029,80.7864779 499.433346,81.7677995 499.224383,84.1571042 L503.946953,83.9011073 C503.863368,81.4264702 502.943929,80.7864779 501.648357,80.7864779 Z M535.267824,67.2613063 L544.295038,97.2982804 L534.975275,97.2982804 L533.470739,91.453017 L524.736074,91.453017 L523.189746,97.2982804 L514.329703,97.2982804 L523.356917,67.2613063 L535.267824,67.2613063 Z M529.166096,74.8558821 L526.616744,84.4984335 L531.673655,84.4984335 L529.166096,74.8558821 Z M547.33024,105.660847 L547.33024,82.7491211 C547.288447,80.274484 547.16307,78.09851 546.786936,75.1118791 L554.643955,74.6425513 C554.769333,75.4958745 554.852918,76.3491976 554.936504,77.2025207 C556.273869,75.5385406 558.405294,74.6852175 560.787476,74.6852175 C567.098167,74.6852175 569.563933,80.5304809 569.563933,86.3330782 C569.563933,92.3063401 567.014581,97.8102743 560.620305,97.8102743 C558.196331,97.8102743 556.775381,97.2129481 555.897735,96.4449573 L555.897735,105.191519 L547.33024,105.660847 Z M558.02916,91.19702 C559.868037,91.19702 560.912854,89.7890369 560.912854,86.1624136 C560.912854,82.4931241 559.868037,81.3411379 557.86199,81.3411379 C557.40227,81.3411379 556.733588,81.4691364 555.855942,81.9384641 L555.897735,90.6850261 C556.524625,91.0690215 557.360478,91.19702 558.02916,91.19702 Z M572.766307,105.660847 L572.766307,82.7491211 C572.724514,80.274484 572.599136,78.09851 572.223002,75.1118791 L580.080022,74.6425513 C580.2054,75.4958745 580.288985,76.3491976 580.37257,77.2025207 C581.709935,75.5385406 583.841361,74.6852175 586.223542,74.6852175 C592.534233,74.6852175 595,80.5304809 595,86.3330782 C595,92.3063401 592.450648,97.8102743 586.056371,97.8102743 C583.632397,97.8102743 582.211447,97.2129481 581.333801,96.4449573 L581.333801,105.191519 L572.766307,105.660847 Z M583.465227,91.19702 C585.304104,91.19702 586.34892,89.7890369 586.34892,86.1624136 C586.34892,82.4931241 585.304104,81.3411379 583.298056,81.3411379 C582.838337,81.3411379 582.169654,81.4691364 581.292009,81.9384641 L581.333801,90.6850261 C581.960691,91.0690215 582.796544,91.19702 583.465227,91.19702 Z" id="LineApp-Copy-2"></path>
        </g>
    </g>
</svg>